<svg id="Layer_1" data-name="Layer 1" xmlns="http://www.w3.org/2000/svg" viewBox="0 0 365.75 80.33"><defs><style>.cls-1{fill:#fff;}</style></defs><path class="cls-1" d="M213.51,431.55q0-3.56,2.26-5.17t7.11-1.72v48.93a6.1,6.1,0,0,1-2.37,5.28q-2.26,1.62-7,1.62Z" transform="translate(-64.39 -403.1)"/><path class="cls-1" d="M270.9,480.49q-9.27,0-15.09-5.07t-5.71-13.69V443.3A17.57,17.57,0,0,1,260.23,427a25,25,0,0,1,11.1-2.37,20.65,20.65,0,0,1,9.38,2.15,25,25,0,0,1,7.54,5.5l.32-.54a13,13,0,0,0-2.26-2.37v-19a6.4,6.4,0,0,1,2.37-5.39q2.37-1.94,7.11-1.94v69.73a7.37,7.37,0,0,1-2.15,5.61c-1.37,1.36-3.59,2.05-6.68,2.05v-6c1-1.29,1.69-2.23,2-2.8l-.32-.43A28.4,28.4,0,0,1,281,478,19.63,19.63,0,0,1,270.9,480.49Zm2-8.3a15.56,15.56,0,0,0,9.6-2.91,9.14,9.14,0,0,0,3.88-7.44V443.19a8.88,8.88,0,0,0-3.67-7.22q-3.66-3-9.91-3t-9.92,2.91a9.55,9.55,0,0,0-3.45,7.86V461.3c0,3.52,1.15,6.22,3.45,8.08S268.63,472.19,272.94,472.19Z" transform="translate(-64.39 -403.1)"/><path class="cls-1" d="M343.29,480.49A26.84,26.84,0,0,1,331.55,478a20.34,20.34,0,0,1-8.09-7,18.33,18.33,0,0,1-2.91-10.13V444.92a18.58,18.58,0,0,1,3-10.35,21.31,21.31,0,0,1,8.3-7.22,24.72,24.72,0,0,1,11.42-2.69,24.31,24.31,0,0,1,11.21,2.58,20.05,20.05,0,0,1,8.09,7.12,18,18,0,0,1,3,10.24v6.89a3.8,3.8,0,0,1-1.29,2.91,4.45,4.45,0,0,1-3.12,1.19H329.71v4.85a11.76,11.76,0,0,0,3.45,8.84q3.55,3.33,10.13,3.34t10-2.91a9.77,9.77,0,0,0,3.45-7.87,8.25,8.25,0,0,1,5.39,1.29,4.65,4.65,0,0,1,2.26,4.21,9.05,9.05,0,0,1-3,6.46,20.69,20.69,0,0,1-7.76,4.85A29.05,29.05,0,0,1,343.29,480.49Zm13.58-32.23V444.6a11.07,11.07,0,0,0-3.77-8.73q-3.66-3.45-9.81-3.45a14.11,14.11,0,0,0-9.91,3.45,11.22,11.22,0,0,0-3.67,8.73v3.66Z" transform="translate(-64.39 -403.1)"/><path class="cls-1" d="M405.14,480.49q-9.27,0-15-5a16.59,16.59,0,0,1-5.6-13,16.29,16.29,0,0,1,5.93-13.15q5.92-5.07,15.63-5.07a22,22,0,0,1,17,7.33l.43-.43c-.79-.86-1.69-1.76-2.7-2.69V444c0-3.67-1.15-6.5-3.45-8.52s-5.57-3-9.8-3q-11.33,0-16.17,8.94a9.05,9.05,0,0,1-2.91-2.26,5.17,5.17,0,0,1-1.08-3q0-2.91,2.91-5.5a21.26,21.26,0,0,1,7.65-4.31,31.78,31.78,0,0,1,10.13-1.61q10.25,0,16.06,5.06t5.93,14v29.53q0,3.78-2.15,5.5t-6.79,1.73v-5.07a25,25,0,0,0,2.47-2.8l-.43-.43A22.59,22.59,0,0,1,405.14,480.49Zm1.61-7.44q6.69,0,10.46-2.8a9.07,9.07,0,0,0,3.88-7.76,9.42,9.42,0,0,0-3.77-7.87q-3.78-2.91-10.35-2.91-6.15,0-9.7,2.91a9.57,9.57,0,0,0-3.45,7.87,9.68,9.68,0,0,0,3.34,7.86Q400.61,473.05,406.75,473.05Z" transform="translate(-64.39 -403.1)"/><path class="cls-1" d="M64.39,421H81.66c33.36,0,60.42,28,60.42,62.48H124.81C91.45,483.43,64.39,455.45,64.39,421Z" transform="translate(-64.39 -403.1)"/><path class="cls-1" d="M132.45,435.23c10.33-19.16,30.07-32.13,52.78-32.13H202.5c0,32.33-23.74,58.88-54.14,62.14A72.21,72.21,0,0,0,132.45,435.23Z" transform="translate(-64.39 -403.1)"/></svg>